<svg preserveAspectRatio="none" width="100%" height="100%" overflow="visible" style="display: block;" viewBox="0 0 135 55" fill="none" xmlns="http://www.w3.org/2000/svg">
<g id="&#230;&#160;&#135;&#233;&#162;&#152;">
<path id="Vector" d="M10.8632 47.6727C10.0623 47.6727 9.27281 47.6158 8.5117 47.5076C6.18861 47.2116 4.43919 46.5 3.31456 45.3955C2.16722 44.2683 1.58786 43.0102 1.58786 41.661C1.58786 40.1922 2.24674 38.86 3.54176 37.693C4.81975 36.543 6.62596 35.9623 8.90362 35.9623C9.59657 35.9623 10.3463 36.0249 11.1301 36.1559C11.914 36.2868 12.7489 36.4974 13.618 36.7878C14.4643 37.0724 14.6403 37.5563 14.6403 37.9093C14.6403 38.2964 14.3677 38.6892 13.7543 38.6892C13.4703 38.6892 13.2147 38.638 13.0045 38.5355C12.4877 38.342 11.9878 38.2053 11.5221 38.1256C11.0449 38.0459 10.5906 38.0004 10.1702 38.0004C8.81274 38.0004 7.81875 38.3647 7.13148 39.1105C6.43285 39.8734 6.09205 40.6704 6.09205 41.5528C6.09205 42.4352 6.43285 43.1411 7.13716 43.8471C7.83011 44.5416 8.99449 44.8946 10.5849 44.8946C12.6921 44.8946 14.6687 44.3993 16.4579 43.4315C18.2869 42.4409 20.042 41.1201 21.6835 39.509C23.4329 37.7897 25.0517 35.6834 26.5 33.2525C27.9655 30.7931 29.4366 28.1174 30.8849 25.2994C32.339 22.47 33.9521 19.5666 35.6788 16.6802C37.4112 13.7768 39.4389 11.0044 41.6995 8.4539C42.1596 7.95862 42.6254 7.44056 43.0911 6.89973C43.2786 6.68339 43.4717 6.47275 43.6591 6.27919C42.8469 6.18241 42.0233 6.10271 41.1883 6.04578C39.9331 5.96039 38.6835 5.91484 37.485 5.91484C35.6788 5.91484 33.9521 5.99454 32.3447 6.14825C30.7373 6.30196 29.1128 6.52399 27.5054 6.80294C25.8923 7.11036 24.0577 7.60565 22.047 8.26034C20.0533 8.91503 18.0937 9.78037 16.2137 10.8336C14.362 11.8697 12.7603 13.1392 11.4539 14.6023C10.1816 16.0255 9.38641 17.6879 9.08537 19.5495C9.05129 19.726 9.02857 19.8911 9.01153 20.0676C8.99449 20.244 8.98881 20.4091 8.98881 20.5685C8.98881 22.043 9.47729 23.2215 10.4713 24.1722C11.4766 25.1343 12.6183 25.6011 13.9588 25.6011C14.9414 25.6011 15.9126 25.3335 16.8442 24.8041C17.7984 24.2576 18.6674 23.5175 19.4342 22.6066C20.1783 21.7128 20.7406 20.7165 21.1041 19.6463C21.2007 18.929 21.6721 18.6728 22.0811 18.6728C22.2287 18.6728 22.9671 18.7297 22.9671 19.8228C22.9274 21.5022 22.4389 22.9653 21.5074 24.1893C20.5929 25.3848 19.4285 26.307 18.0426 26.9276C16.6738 27.5367 15.2651 27.8498 13.8565 27.8498C12.4479 27.8498 11.0109 27.5367 9.71017 26.9219C8.39242 26.3013 7.30188 25.362 6.47261 24.1323C5.63766 22.897 5.21734 21.3599 5.21734 19.5609C5.21734 17.4829 5.73421 15.6213 6.7566 14.0216C7.75627 12.4504 9.11377 11.0556 10.7837 9.87145C12.4309 8.70439 14.2428 7.70813 16.1682 6.90542C18.0881 6.10271 20.0306 5.45371 21.9447 4.9755C23.8532 4.49729 25.6083 4.12725 27.1646 3.88245C28.755 3.63196 30.4306 3.4384 32.1402 3.29608C33.8555 3.15375 35.622 3.08544 37.3828 3.08544C38.905 3.08544 40.45 3.15945 41.9722 3.30177C43.4035 3.4384 44.8292 3.63766 46.2094 3.89384C46.7604 3.48395 47.334 3.1139 47.9191 2.7894C48.5723 2.42506 49.3106 2.09486 50.1115 1.79883C50.6568 1.55972 51.0828 1.44587 51.4122 1.44587C52.0256 1.44587 52.2983 1.83868 52.2983 2.2258C52.2983 2.83495 51.7019 3.28469 51.185 3.60919C50.901 3.75721 50.5829 3.97923 50.191 4.30373C50.0036 4.45744 49.8105 4.62823 49.6117 4.80471C51.5485 5.36832 53.332 6.15395 54.9281 7.13883C56.9899 8.3742 58.5008 9.71205 59.4039 11.1239C60.324 12.5528 60.7898 14.0444 60.7898 15.5587C60.7898 17.278 60.2672 19.0087 59.2278 20.6938C58.2168 22.339 56.8877 23.8875 55.2632 25.2937C53.6558 26.6885 51.8666 27.9125 49.9354 28.9372C47.9986 29.9619 46.056 30.7134 44.1589 31.1802C42.3584 31.6413 40.5068 31.9829 38.6551 32.1993C36.8148 32.4099 35.1392 32.5181 33.6852 32.5181H32.9184C32.7536 32.5181 32.5832 32.5124 32.4242 32.501C31.2825 34.1064 30.1011 35.6834 28.9083 37.192C27.636 38.8088 26.1763 40.4028 24.5802 41.9285C22.6036 43.8015 20.4168 45.2475 18.0767 46.221C15.7309 47.1945 13.2999 47.6898 10.8462 47.6898L10.8632 47.6727ZM47.7146 6.98512C46.0163 9.41032 44.4089 11.9551 42.9264 14.5568C41.3701 17.2951 39.8081 20.0846 38.2916 22.8514C36.9341 25.3222 35.48 27.7701 33.9578 30.1498C34.9859 30.1213 36.1162 30.0189 37.3146 29.8367C38.9334 29.5976 40.5749 29.2275 42.1937 28.7436C44.8576 27.9181 47.3 26.7226 49.4356 25.1798C51.5656 23.6427 53.2752 21.9121 54.5135 20.0391C55.729 18.206 56.3424 16.3899 56.3424 14.6422C56.3424 13.6174 56.0925 12.6212 55.5926 11.6875C55.0928 10.7539 54.2635 9.89992 53.1162 9.14845C52.3494 8.64746 51.4577 8.20341 50.4807 7.82768C49.606 7.49749 48.6745 7.21284 47.7089 6.98512H47.7146Z" fill="var(--fill-0, #1A1919)"/>
<path id="Vector_2" d="M35.6958 47.3027C35.3834 47.3027 35.1278 47.0465 35.1278 46.7334V44.1146H32.5151C32.2027 44.1146 31.9471 43.8584 31.9471 43.5453V33.9811C31.9471 33.668 32.2027 33.4118 32.5151 33.4118H35.1278V30.7931C35.1278 30.48 35.3834 30.2238 35.6958 30.2238H42.0574C42.3697 30.2238 42.6253 30.48 42.6253 30.7931V33.4118H45.2381C45.5505 33.4118 45.8061 33.668 45.8061 33.9811V43.5453C45.8061 43.8584 45.5505 44.1146 45.2381 44.1146H42.6253V46.7334C42.6253 47.0465 42.3697 47.3027 42.0574 47.3027H35.6958ZM41.4894 42.976V34.5504H36.2638V42.976H41.4894Z" fill="var(--fill-0, #1A1919)"/>
<path id="Vector_3" d="M54.7747 53.8496C53.3661 53.8496 52.0256 53.5763 50.7874 53.0469C49.5549 52.5174 48.453 51.766 47.5101 50.8266C46.5672 49.8816 45.8232 48.7772 45.2949 47.5418C44.761 46.3007 44.494 44.9572 44.494 43.5453C44.494 42.1335 44.7667 40.7899 45.2949 39.5489C45.8232 38.3135 46.5672 37.2091 47.5101 36.264C48.4473 35.3247 49.5492 34.5732 50.7874 34.0438C52.0256 33.5086 53.3661 33.2411 54.7747 33.2411C56.1833 33.2411 57.5238 33.5143 58.762 34.0438C59.9946 34.5789 61.0965 35.3247 62.0394 36.264C62.9822 37.2091 63.7263 38.3135 64.2545 39.5489C64.7884 40.7899 65.0554 42.1335 65.0554 43.5453C65.0554 44.9572 64.7828 46.3178 64.2545 47.5646C63.7263 48.7999 62.9765 49.9044 62.028 50.8494C61.0794 51.7887 59.9832 52.5345 58.7564 53.0583C57.5238 53.582 56.189 53.8496 54.7804 53.8496H54.7747ZM59.1255 48.3046L57.1489 45.0312C57.0694 44.9003 57.0467 44.7409 57.0865 44.5928C57.1262 44.4448 57.2228 44.3196 57.3591 44.2399C57.8362 43.9723 58.2224 43.6136 58.5121 43.1753C58.7904 42.7483 58.9324 42.2303 58.9324 41.604C58.9324 40.8184 58.762 40.2149 58.4212 39.805C58.0634 39.3781 57.5976 39.0764 56.9956 38.8999C56.3481 38.7063 55.6324 38.6038 54.8599 38.6038H51.0714V48.3046H53.1275V45.3671C53.1275 45.054 53.3831 44.7978 53.6955 44.7978H54.8429C55.0474 44.7978 55.2348 44.9116 55.337 45.0881L57.1376 48.2989H59.1312L59.1255 48.3046ZM53.6899 43.7844C53.3775 43.7844 53.1219 43.5282 53.1219 43.2151V40.511C53.1219 40.1979 53.3775 39.9417 53.6899 39.9417H54.6498C55.3598 39.9417 55.905 40.0612 56.3197 40.306C56.6661 40.511 57.0751 40.9379 57.0751 41.7976C57.0751 42.3897 56.8479 42.8906 56.4105 43.255C56.0016 43.6023 55.4222 43.7787 54.6838 43.7787H53.6842L53.6899 43.7844Z" fill="var(--fill-0, #1A1919)"/>
<path id="Vector_4" d="M66.9809 51.561C66.6685 51.561 66.4129 51.3048 66.4129 50.9917V37.1806H62.5165C62.2041 37.1806 61.9485 36.9244 61.9485 36.6113V30.5483C61.9485 30.2352 62.2041 29.979 62.5165 29.979H66.4129V22.0999C66.4129 21.7868 66.6685 21.5306 66.9809 21.5306H74.2796C74.592 21.5306 74.8476 21.7868 74.8476 22.0999V29.979H78.7838C79.0962 29.979 79.3518 30.2352 79.3518 30.5483V36.6113C79.3518 36.9244 79.0962 37.1806 78.7838 37.1806H74.8476V50.9917C74.8476 51.3048 74.592 51.561 74.2796 51.561H66.9809Z" fill="var(--fill-0, #1A1919)"/>
<path id="Vector_5" d="M86.1394 42.3213C84.3956 42.3213 82.8052 41.9342 81.4137 41.1657C80.0164 40.3971 78.9031 39.3382 78.1023 38.0118C77.2957 36.6853 76.8924 35.1881 76.8924 33.5542C76.8924 31.9203 77.3014 30.3718 78.1079 29.0624C78.9088 27.7587 80.0221 26.7169 81.4193 25.9598C82.8109 25.2083 84.3899 24.8212 86.111 24.8212C87.832 24.8212 89.5019 25.2026 90.8821 25.9598C92.268 26.7169 93.3756 27.7587 94.1765 29.0624C94.983 30.3718 95.392 31.8804 95.392 33.5542C95.392 35.2279 94.9887 36.6796 94.1992 38.0061C93.4097 39.3325 92.2964 40.3914 90.8991 41.16C89.5076 41.9228 87.9058 42.3156 86.1394 42.3156V42.3213ZM86.1053 30.9411C85.6338 30.9411 85.2249 31.0493 84.8557 31.2713C84.4808 31.499 84.1968 31.8007 83.9753 32.1936C83.7595 32.5864 83.6459 33.0532 83.6459 33.594C83.6459 34.1349 83.7538 34.5618 83.9696 34.9603C84.1855 35.3532 84.4751 35.6549 84.85 35.8826C85.2192 36.1046 85.6282 36.2128 86.0996 36.2128C86.6165 36.2128 87.0538 36.1046 87.4344 35.8769C87.8149 35.6549 88.0989 35.3531 88.3034 34.966C88.5136 34.5732 88.6158 34.1007 88.6158 33.5599C88.6158 33.019 88.5079 32.5522 88.292 32.1594C88.0762 31.7723 87.7922 31.4762 87.423 31.2599C87.0595 31.0493 86.6108 30.9411 86.1053 30.9411Z" fill="var(--fill-0, #1A1919)"/>
<path id="Vector_6" d="M99.7712 44.1146C99.4588 44.1146 99.2032 43.8584 99.2032 43.5453V40.9266H96.5904C96.278 40.9266 96.0224 40.6704 96.0224 40.3573V24.9863H93.4097C93.0973 24.9863 92.8417 24.7301 92.8417 24.417V21.2289C92.8417 20.9158 93.0973 20.6596 93.4097 20.6596H99.7712C100.084 20.6596 100.339 20.9158 100.339 21.2289V39.788H106.133C106.445 39.788 106.701 40.0442 106.701 40.3573V43.5453C106.701 43.8584 106.445 44.1146 106.133 44.1146H99.7712Z" fill="var(--fill-0, #1A1919)"/>
<path id="Vector_7" d="M104.366 49.2269C104.202 49.2269 104.048 49.1586 103.94 49.0334C103.832 48.9138 103.781 48.7487 103.804 48.5836L103.838 48.3274C103.872 48.0599 104.088 47.8492 104.361 47.8321L104.804 47.798C105.338 47.7581 105.735 47.7069 105.991 47.6386C106.184 47.5873 106.343 47.502 106.474 47.3767C106.536 47.3141 106.655 47.1547 106.735 46.7562L109.569 33.3891C109.654 32.9621 109.575 32.8369 109.575 32.8312C109.495 32.8084 109.285 32.7515 108.791 32.7515C108.535 32.7515 108.229 32.7686 107.882 32.797C107.865 32.797 107.848 32.797 107.831 32.797C107.666 32.797 107.507 32.723 107.399 32.5978C107.28 32.4554 107.235 32.2676 107.28 32.0911L107.343 31.8349C107.399 31.5958 107.604 31.425 107.848 31.4079C107.848 31.4079 115.448 30.833 115.459 30.833C115.624 30.833 115.777 30.9013 115.885 31.0265C116.004 31.1631 116.05 31.3453 116.016 31.5218L112.738 46.9839C112.659 47.3881 112.71 47.5133 112.71 47.5133C112.721 47.5304 112.756 47.593 112.915 47.6386C113.062 47.6841 113.375 47.7467 114.005 47.7923L114.42 47.8264C114.573 47.8378 114.715 47.9118 114.817 48.0314C114.914 48.1509 114.959 48.3047 114.942 48.4641L114.908 48.7202C114.874 49.0049 114.63 49.2212 114.346 49.2212H104.361L104.366 49.2269ZM113.272 30.4174C112.324 30.4174 111.591 30.0758 111.086 29.4097C110.591 28.755 110.444 27.9409 110.648 26.9845C110.847 26.1078 111.301 25.3848 111.994 24.8269C112.687 24.269 113.494 23.9843 114.386 23.9843C115.277 23.9843 116.027 24.3031 116.516 24.935C117.004 25.5613 117.157 26.3298 116.976 27.2179C116.805 28.1231 116.362 28.8917 115.658 29.4951C114.954 30.1043 114.147 30.4117 113.267 30.4117L113.272 30.4174Z" fill="var(--fill-0, #1A1919)"/>
<path id="Vector_8" d="M124.695 52.489C123.524 52.489 122.326 52.2556 121.116 51.7944C119.378 51.1284 117.708 50.0068 116.163 48.4527C114.618 46.8985 113.539 45.276 112.886 43.5396C112.221 41.7805 112.045 40.0328 112.363 38.342C112.682 36.6455 113.499 35.1254 114.789 33.8274C116.095 32.5181 117.617 31.6926 119.304 31.3795C119.838 31.2827 120.383 31.2315 120.923 31.2315C122.087 31.2315 123.28 31.4592 124.479 31.9146C126.211 32.5693 127.858 33.6737 129.381 35.1994C130.931 36.7536 132.05 38.4217 132.715 40.1637C133.385 41.9285 133.572 43.682 133.26 45.3614C132.948 47.0579 132.124 48.5779 130.818 49.8873C129.511 51.1967 127.995 52.0222 126.302 52.3296C125.774 52.4264 125.228 52.4776 124.695 52.4776V52.489ZM125.944 35.1141C125.842 35.1141 125.745 35.114 125.643 35.1254C124.513 35.2165 123.388 35.5866 122.309 36.2185C121.196 36.8732 120.213 37.619 119.401 38.4387C118.589 39.2585 117.839 40.2377 117.186 41.3535C116.55 42.4352 116.186 43.5624 116.095 44.6953C116.01 45.7542 116.356 46.6594 117.157 47.4621C117.907 48.2136 118.742 48.5779 119.708 48.5779C119.793 48.5779 119.884 48.5779 119.969 48.5665C121.111 48.4925 122.241 48.1282 123.32 47.4962C124.433 46.8416 125.416 46.0901 126.228 45.276C127.057 44.4448 127.807 43.4599 128.455 42.3498C129.079 41.2738 129.437 40.1466 129.517 39.0023C129.591 37.9264 129.227 37.0041 128.409 36.1843C127.688 35.4613 126.881 35.1084 125.956 35.1084L125.944 35.1141Z" fill="var(--fill-0, #1A1919)"/>
</g>
</svg>
