<svg width="215" height="96" viewBox="0 0 215 95.9316" fill="none" xmlns="http://www.w3.org/2000/svg">
<g id="Frame 2147225936">
<g>
<path d="M0 0H215V54C215 65.0457 206.046 74 195 74H0V0Z" fill="white"/>
<path d="M48.8632 56.6727C48.0623 56.6727 47.2728 56.6158 46.5117 56.5076C44.1886 56.2116 42.4392 55.5 41.3146 54.3955C40.1672 53.2683 39.5879 52.0102 39.5879 50.661C39.5879 49.1922 40.2468 47.86 41.5418 46.693C42.8198 45.543 44.626 44.9623 46.9036 44.9623C47.5966 44.9623 48.3463 45.0249 49.1302 45.1559C49.914 45.2868 50.749 45.4974 51.618 45.7878C52.4643 46.0724 52.6404 46.5563 52.6404 46.9093C52.6404 47.2964 52.3677 47.6892 51.7543 47.6892C51.4703 47.6892 51.2147 47.638 51.0046 47.5355C50.4877 47.342 49.9878 47.2053 49.5221 47.1256C49.045 47.0459 48.5906 47.0004 48.1703 47.0004C46.8128 47.0004 45.8188 47.3647 45.1315 48.1105C44.4329 48.8734 44.0921 49.6704 44.0921 50.5528C44.0921 51.4352 44.4329 52.1411 45.1372 52.8471C45.8301 53.5416 46.9945 53.8946 48.5849 53.8946C50.6922 53.8946 52.6688 53.3993 54.4579 52.4315C56.2869 51.4409 58.042 50.1201 59.6835 48.509C61.4329 46.7897 63.0517 44.6833 64.5001 42.2525C65.9655 39.7931 67.4366 37.1174 68.885 34.2994C70.339 31.47 71.9521 28.5666 73.6788 25.6802C75.4112 22.7768 77.439 20.0043 79.6996 17.4539C80.1596 16.9586 80.6254 16.4406 81.0911 15.8997C81.2786 15.6834 81.4717 15.4727 81.6591 15.2792C80.8469 15.1824 80.0233 15.1027 79.1884 15.0458C77.9331 14.9604 76.6835 14.9148 75.4851 14.9148C73.6788 14.9148 71.9521 14.9945 70.3447 15.1483C68.7373 15.302 67.1128 15.524 65.5054 15.8029C63.8923 16.1104 62.0577 16.6056 60.047 17.2603C58.0533 17.915 56.0938 18.7804 54.2137 19.8336C52.3621 20.8697 50.7603 22.1392 49.4539 23.6023C48.1816 25.0255 47.3864 26.6879 47.0854 28.5495C47.0513 28.726 47.0286 28.8911 47.0116 29.0675C46.9945 29.244 46.9888 29.4091 46.9888 29.5685C46.9888 31.043 47.4773 32.2215 48.4713 33.1722C49.4766 34.1343 50.6183 34.6011 51.9588 34.6011C52.9414 34.6011 53.9127 34.3335 54.8442 33.8041C55.7984 33.2576 56.6674 32.5175 57.4342 31.6066C58.1783 30.7128 58.7406 29.7165 59.1041 28.6463C59.2007 27.929 59.6721 27.6728 60.0811 27.6728C60.2288 27.6728 60.9671 27.7297 60.9671 28.8228C60.9274 30.5022 60.4389 31.9653 59.5074 33.1893C58.5929 34.3848 57.4286 35.307 56.0426 35.9276C54.6738 36.5367 53.2652 36.8498 51.8565 36.8498C50.4479 36.8498 49.0109 36.5367 47.7102 35.9219C46.3924 35.3013 45.3019 34.362 44.4726 33.1323C43.6377 31.897 43.2174 30.3599 43.2174 28.5609C43.2174 26.4829 43.7342 24.6213 44.7566 23.0216C45.7563 21.4504 47.1138 20.0556 48.7837 18.8714C50.4309 17.7044 52.2428 16.7081 54.1683 15.9054C56.0881 15.1027 58.0306 14.4537 59.9448 13.9755C61.8532 13.4973 63.6083 13.1272 65.1646 12.8825C66.755 12.632 68.4306 12.4384 70.1402 12.2961C71.8556 12.1538 73.622 12.0854 75.3828 12.0854C76.905 12.0854 78.45 12.1594 79.9722 12.3018C81.4035 12.4384 82.8292 12.6377 84.2094 12.8938C84.7604 12.4839 85.3341 12.1139 85.9191 11.7894C86.5723 11.4251 87.3107 11.0949 88.1115 10.7988C88.6568 10.5597 89.0828 10.4459 89.4122 10.4459C90.0257 10.4459 90.2983 10.8387 90.2983 11.2258C90.2983 11.8349 89.7019 12.2847 89.185 12.6092C88.901 12.7572 88.583 12.9792 88.1911 13.3037C88.0036 13.4574 87.8105 13.6282 87.6117 13.8047C89.5486 14.3683 91.3321 15.1539 92.9281 16.1388C94.9899 17.3742 96.5008 18.712 97.4039 20.1239C98.3241 21.5528 98.7898 23.0444 98.7898 24.5587C98.7898 26.278 98.2673 28.0087 97.2278 29.6938C96.2168 31.339 94.8877 32.8875 93.2632 34.2937C91.6558 35.6885 89.8666 36.9125 87.9355 37.9372C85.9986 38.9619 84.0561 39.7134 82.159 40.1802C80.3584 40.6413 78.5068 40.9829 76.6551 41.1993C74.8148 41.4099 73.1392 41.5181 71.6852 41.5181H70.9184C70.7537 41.5181 70.5833 41.5124 70.4242 41.501C69.2826 43.1064 68.1011 44.6833 66.9084 46.192C65.6361 47.8088 64.1763 49.4028 62.5802 50.9285C60.6036 52.8015 58.4169 54.2475 56.0767 55.221C53.7309 56.1945 51.2999 56.6898 48.8462 56.6898L48.8632 56.6727ZM85.7146 15.9851C84.0163 18.4103 82.4089 20.9551 80.9264 23.5568C79.3701 26.2951 77.8081 29.0846 76.2916 31.8514C74.9341 34.3222 73.48 36.7701 71.9578 39.1498C72.9859 39.1213 74.1162 39.0189 75.3147 38.8367C76.9334 38.5976 78.5749 38.2275 80.1937 37.7436C82.8576 36.9181 85.3 35.7226 87.4356 34.1798C89.5656 32.6427 91.2753 30.9121 92.5135 29.0391C93.729 27.2059 94.3424 25.3899 94.3424 23.6422C94.3424 22.6174 94.0925 21.6212 93.5927 20.6875C93.0928 19.7539 92.2636 18.8999 91.1162 18.1484C90.3494 17.6475 89.4577 17.2034 88.4807 16.8277C87.606 16.4975 86.6745 16.2128 85.7089 15.9851H85.7146Z" fill="#1A1919"/>
<path d="M73.696 56.3027C73.3836 56.3027 73.128 56.0465 73.128 55.7334V53.1146H70.5153C70.2029 53.1146 69.9473 52.8585 69.9473 52.5453V42.9812C69.9473 42.6681 70.2029 42.4119 70.5153 42.4119H73.128V39.7931C73.128 39.48 73.3836 39.2238 73.696 39.2238H80.0575C80.3699 39.2238 80.6255 39.48 80.6255 39.7931V42.4119H83.2383C83.5507 42.4119 83.8063 42.6681 83.8063 42.9812V52.5453C83.8063 52.8585 83.5507 53.1146 83.2383 53.1146H80.6255V55.7334C80.6255 56.0465 80.3699 56.3027 80.0575 56.3027H73.696ZM79.4895 51.9761V43.5505H74.264V51.9761H79.4895Z" fill="#1A1919"/>
<path d="M92.7748 62.8496C91.3662 62.8496 90.0257 62.5764 88.7875 62.0469C87.555 61.5175 86.4531 60.766 85.5102 59.8267C84.5673 58.8816 83.8232 57.7772 83.295 56.5418C82.7611 55.3007 82.4941 53.9572 82.4941 52.5454C82.4941 51.1335 82.7668 49.79 83.295 48.5489C83.8232 47.3135 84.5673 46.2091 85.5102 45.2641C86.4474 44.3247 87.5493 43.5732 88.7875 43.0438C90.0257 42.5087 91.3662 42.2411 92.7748 42.2411C94.1834 42.2411 95.5239 42.5144 96.7621 43.0438C97.9947 43.5789 99.0966 44.3247 100.039 45.2641C100.982 46.2091 101.726 47.3135 102.255 48.5489C102.789 49.79 103.055 51.1335 103.055 52.5454C103.055 53.9572 102.783 55.3178 102.255 56.5646C101.726 57.8 100.977 58.9044 100.028 59.8494C99.0795 60.7888 97.9833 61.5345 96.7564 62.0583C95.5239 62.582 94.1891 62.8496 92.7805 62.8496H92.7748ZM97.1256 57.3047L95.149 54.0312C95.0695 53.9003 95.0468 53.7409 95.0865 53.5929C95.1263 53.4448 95.2229 53.3196 95.3592 53.2399C95.8363 52.9723 96.2225 52.6137 96.5122 52.1753C96.7905 51.7483 96.9325 51.2303 96.9325 50.6041C96.9325 49.8184 96.7621 49.215 96.4213 48.8051C96.0635 48.3781 95.5977 48.0764 94.9957 47.8999C94.3482 47.7063 93.6325 47.6039 92.86 47.6039H89.0715V57.3047H91.1276V54.3671C91.1276 54.054 91.3832 53.7978 91.6956 53.7978H92.843C93.0475 53.7978 93.2349 53.9117 93.3371 54.0881L95.1377 57.299H97.1313L97.1256 57.3047ZM91.6899 52.7845C91.3776 52.7845 91.122 52.5283 91.122 52.2152V49.511C91.122 49.1979 91.3776 48.9417 91.6899 48.9417H92.6499C93.3599 48.9417 93.9051 49.0613 94.3198 49.3061C94.6662 49.511 95.0752 49.938 95.0752 50.7976C95.0752 51.3897 94.848 51.8907 94.4106 52.255C94.0017 52.6023 93.4223 52.7788 92.6839 52.7788H91.6843L91.6899 52.7845Z" fill="#1A1919"/>
<path d="M104.981 60.561C104.668 60.561 104.413 60.3048 104.413 59.9917V46.1806H100.516C100.204 46.1806 99.9482 45.9244 99.9482 45.6113V39.5483C99.9482 39.2352 100.204 38.979 100.516 38.979H104.413V31.0999C104.413 30.7868 104.668 30.5306 104.981 30.5306H112.279C112.592 30.5306 112.847 30.7868 112.847 31.0999V38.979H116.784C117.096 38.979 117.352 39.2352 117.352 39.5483V45.6113C117.352 45.9244 117.096 46.1806 116.784 46.1806H112.847V59.9917C112.847 60.3048 112.592 60.561 112.279 60.561H104.981Z" fill="#1A1919"/>
<path d="M124.14 51.3213C122.396 51.3213 120.805 50.9342 119.414 50.1657C118.017 49.3971 116.903 48.3382 116.102 47.0118C115.296 45.6853 114.893 44.1881 114.893 42.5542C114.893 40.9203 115.302 39.3718 116.108 38.0624C116.909 36.7587 118.022 35.7169 119.419 34.9598C120.811 34.2083 122.39 33.8212 124.111 33.8212C125.832 33.8212 127.502 34.2026 128.882 34.9598C130.268 35.7169 131.376 36.7587 132.177 38.0624C132.983 39.3718 133.392 40.8804 133.392 42.5542C133.392 44.2279 132.989 45.6796 132.199 47.0061C131.41 48.3325 130.297 49.3914 128.899 50.16C127.508 50.9228 125.906 51.3156 124.14 51.3156V51.3213ZM124.105 39.9411C123.634 39.9411 123.225 40.0493 122.856 40.2713C122.481 40.499 122.197 40.8007 121.975 41.1936C121.76 41.5864 121.646 42.0532 121.646 42.594C121.646 43.1349 121.754 43.5618 121.97 43.9603C122.186 44.3532 122.475 44.6549 122.85 44.8826C123.219 45.1046 123.628 45.2128 124.1 45.2128C124.617 45.2128 125.054 45.1046 125.435 44.8769C125.815 44.6549 126.099 44.3531 126.304 43.966C126.514 43.5732 126.616 43.1007 126.616 42.5599C126.616 42.019 126.508 41.5522 126.292 41.1594C126.076 40.7723 125.792 40.4762 125.423 40.2599C125.06 40.0493 124.611 39.9411 124.105 39.9411Z" fill="#1A1919"/>
<path d="M137.771 53.1146C137.459 53.1146 137.203 52.8584 137.203 52.5453V49.9266H134.591C134.278 49.9266 134.023 49.6704 134.023 49.3573V33.9863H131.41C131.097 33.9863 130.842 33.7301 130.842 33.417V30.2289C130.842 29.9158 131.097 29.6596 131.41 29.6596H137.771C138.084 29.6596 138.339 29.9158 138.339 30.2289V48.788H144.133C144.445 48.788 144.701 49.0441 144.701 49.3573V52.5453C144.701 52.8584 144.445 53.1146 144.133 53.1146H137.771Z" fill="#1A1919"/>
<path d="M142.366 58.2269C142.202 58.2269 142.048 58.1586 141.94 58.0334C141.833 57.9138 141.781 57.7487 141.804 57.5836L141.838 57.3274C141.872 57.0599 142.088 56.8492 142.361 56.8321L142.804 56.798C143.338 56.7581 143.735 56.7069 143.991 56.6386C144.184 56.5873 144.343 56.5019 144.474 56.3767C144.536 56.3141 144.655 56.1547 144.735 55.7562L147.569 42.3891C147.654 41.9621 147.575 41.8369 147.575 41.8312C147.495 41.8084 147.285 41.7515 146.791 41.7515C146.536 41.7515 146.229 41.7686 145.882 41.797C145.865 41.797 145.848 41.797 145.831 41.797C145.666 41.797 145.507 41.723 145.4 41.5978C145.28 41.4554 145.235 41.2676 145.28 41.0911L145.343 40.8349C145.4 40.5958 145.604 40.425 145.848 40.4079C145.848 40.4079 153.448 39.8329 153.459 39.8329C153.624 39.8329 153.777 39.9013 153.885 40.0265C154.005 40.1631 154.05 40.3453 154.016 40.5218L150.739 55.9839C150.659 56.3881 150.71 56.5133 150.71 56.5133C150.722 56.5304 150.756 56.593 150.915 56.6386C151.062 56.6841 151.375 56.7467 152.005 56.7923L152.42 56.8264C152.573 56.8378 152.715 56.9118 152.818 57.0314C152.914 57.1509 152.96 57.3047 152.942 57.4641L152.908 57.7202C152.874 58.0049 152.63 58.2212 152.346 58.2212H142.361L142.366 58.2269ZM151.273 39.4174C150.324 39.4174 149.591 39.0758 149.086 38.4097C148.592 37.755 148.444 36.9409 148.648 35.9845C148.847 35.1078 149.302 34.3848 149.995 33.8269C150.688 33.269 151.494 32.9843 152.386 32.9843C153.278 32.9843 154.027 33.3031 154.516 33.935C155.004 34.5613 155.158 35.3298 154.976 36.2179C154.805 37.1231 154.362 37.8916 153.658 38.4951C152.954 39.1042 152.147 39.4117 151.267 39.4117L151.273 39.4174Z" fill="#1A1919"/>
<path d="M162.695 61.489C161.525 61.489 160.326 61.2556 159.116 60.7944C157.378 60.1283 155.709 59.0068 154.164 57.4527C152.619 55.8985 151.539 54.276 150.886 52.5396C150.222 50.7805 150.046 49.0328 150.364 47.342C150.682 45.6455 151.5 44.1254 152.789 42.8274C154.095 41.5181 155.618 40.6926 157.305 40.3795C157.838 40.2827 158.384 40.2314 158.923 40.2314C160.088 40.2314 161.281 40.4592 162.479 40.9146C164.211 41.5693 165.859 42.6737 167.381 44.1994C168.931 45.7536 170.05 47.4217 170.715 49.1637C171.385 50.9285 171.573 52.682 171.26 54.3614C170.948 56.0579 170.124 57.5779 168.818 58.8873C167.511 60.1967 165.995 61.0221 164.302 61.3296C163.774 61.4263 163.229 61.4776 162.695 61.4776V61.489ZM163.944 44.114C163.842 44.114 163.746 44.114 163.643 44.1254C162.513 44.2165 161.388 44.5866 160.309 45.2185C159.196 45.8732 158.213 46.6189 157.401 47.4387C156.589 48.2585 155.839 49.2377 155.186 50.3535C154.55 51.4352 154.186 52.5624 154.095 53.6953C154.01 54.7542 154.357 55.6594 155.158 56.4621C155.907 57.2136 156.742 57.5779 157.708 57.5779C157.793 57.5779 157.884 57.5779 157.969 57.5665C159.111 57.4925 160.241 57.1282 161.32 56.4962C162.434 55.8415 163.416 55.0901 164.228 54.276C165.058 53.4448 165.807 52.4599 166.455 51.3498C167.08 50.2738 167.438 49.1466 167.517 48.0023C167.591 46.9264 167.227 46.0041 166.41 45.1843C165.688 44.4613 164.882 44.1084 163.956 44.1084L163.944 44.114Z" fill="#1A1919"/>
</g>
<path d="M23.999 74C11.4206 74 1.09497 83.638 0 95.9316L0 74H23.999Z" fill="white"/>
</g>
</svg>
