<svg preserveAspectRatio="xMidYMid meet" width="100%" height="100%" overflow="visible" style="display: block;" viewBox="0 0 678 276" fill="none" xmlns="http://www.w3.org/2000/svg">
<g id="&#230;&#160;&#135;&#233;&#162;&#152;">
<path id="Vector" d="M54.5574 239.23C50.5352 239.23 46.5701 238.945 42.7477 238.402C31.0806 236.916 22.2946 233.345 16.6465 227.803C10.8842 222.147 7.97461 215.833 7.97461 209.062C7.97461 201.692 11.2836 195.007 17.7875 189.15C24.2058 183.379 33.2771 180.465 44.7159 180.465C48.1961 180.465 51.9615 180.78 55.8981 181.437C59.8347 182.094 64.028 183.151 68.3924 184.608C72.6428 186.036 73.5271 188.465 73.5271 190.236C73.5271 192.178 72.1578 194.15 69.077 194.15C67.6507 194.15 66.3671 193.893 65.3116 193.378C62.7158 192.407 60.2055 191.721 57.8664 191.321C55.4702 190.921 53.1881 190.693 51.0772 190.693C44.2595 190.693 39.2675 192.521 35.8159 196.264C32.3072 200.092 30.5956 204.091 30.5956 208.519C30.5956 212.948 32.3072 216.49 35.8444 220.033C39.3245 223.518 45.1724 225.289 53.1596 225.289C63.7427 225.289 73.6697 222.804 82.6553 217.947C91.8407 212.976 100.655 206.348 108.899 198.263C117.685 189.636 125.815 179.066 133.089 166.867C140.449 154.525 147.837 141.098 155.111 126.957C162.414 112.758 170.515 98.1886 179.187 83.7045C187.887 69.1346 198.071 55.2218 209.424 42.4232C211.735 39.9378 214.074 37.3381 216.413 34.6241C217.355 33.5385 218.324 32.4814 219.266 31.5101C215.187 31.0245 211.05 30.6245 206.857 30.3388C200.553 29.9103 194.277 29.6818 188.258 29.6818C179.187 29.6818 170.515 30.0817 162.442 30.8531C154.369 31.6244 146.211 32.7386 138.138 34.1384C130.037 35.6811 120.823 38.1665 110.725 41.4519C100.712 44.7373 90.8708 49.0796 81.4287 54.3648C72.1293 59.5642 64.085 65.935 57.5241 73.277C51.1343 80.4191 47.1406 88.7611 45.6288 98.1029C45.4576 98.9885 45.3435 99.817 45.2579 100.703C45.1724 101.588 45.1438 102.417 45.1438 103.217C45.1438 110.616 47.597 116.529 52.5891 121.3C57.6382 126.128 63.3719 128.471 70.104 128.471C75.0389 128.471 79.9169 127.128 84.5951 124.471C89.3875 121.729 93.7519 118.015 97.6029 113.444C101.34 108.959 104.164 103.959 105.99 98.5886C106.474 94.9889 108.842 93.7034 110.896 93.7034C111.638 93.7034 115.346 93.9891 115.346 99.4742C115.146 107.902 112.693 115.244 108.015 121.386C103.422 127.385 97.5744 132.014 90.6141 135.127C83.7393 138.184 76.6649 139.756 69.5905 139.756C62.5161 139.756 55.299 138.184 48.7666 135.099C42.1486 131.985 36.6716 127.271 32.5069 121.1C28.3136 114.901 26.2026 107.188 26.2026 98.16C26.2026 87.7326 28.7985 78.3908 33.9332 70.3631C38.9537 62.4782 45.7714 55.479 54.158 49.5367C62.4305 43.6802 71.5303 38.6808 81.2005 34.6526C90.8423 30.6245 100.598 27.3677 110.211 24.968C119.796 22.5682 128.611 20.7113 136.427 19.4829C144.414 18.2259 152.829 17.2545 161.415 16.5403C170.03 15.8261 178.902 15.4833 187.745 15.4833C195.39 15.4833 203.149 15.8547 210.794 16.5689C217.982 17.2545 225.142 18.2544 232.074 19.54C234.841 17.4831 237.722 15.6261 240.66 13.9977C243.941 12.1694 247.649 10.5124 251.671 9.02685C254.41 7.82698 256.549 7.25562 258.204 7.25562C261.284 7.25562 262.654 9.22683 262.654 11.1695C262.654 14.2263 259.658 16.4832 257.063 18.1116C255.636 18.8544 254.039 19.9685 252.071 21.5969C251.129 22.3683 250.159 23.2253 249.161 24.1109C258.888 26.9392 267.845 30.8816 275.861 35.8239C286.216 42.0233 293.804 48.7368 298.339 55.8218C302.961 62.9924 305.3 70.4773 305.3 78.0765C305.3 86.7041 302.675 95.3889 297.455 103.845C292.378 112.101 285.703 119.872 277.544 126.928C269.471 133.928 260.486 140.07 250.787 145.212C241.06 150.354 231.304 154.125 221.776 156.468C212.733 158.782 203.434 160.496 194.134 161.582C184.892 162.639 176.477 163.182 169.174 163.182H165.323C164.496 163.182 163.64 163.153 162.842 163.096C157.108 171.152 151.174 179.066 145.184 186.636C138.794 194.75 131.463 202.749 123.447 210.405C113.52 219.804 102.538 227.06 90.7852 231.946C79.004 236.831 66.795 239.316 54.4718 239.316L54.5574 239.23ZM239.633 35.0526C231.104 47.2227 223.031 59.9928 215.586 73.0485C207.77 86.7898 199.925 100.788 192.309 114.673C185.491 127.071 178.188 139.356 170.544 151.297C175.707 151.154 181.383 150.64 187.402 149.726C195.532 148.526 203.776 146.669 211.906 144.241C225.285 140.098 237.551 134.099 248.277 126.357C258.974 118.644 267.56 109.959 273.779 100.56C279.883 91.3608 282.964 82.2475 282.964 73.477C282.964 68.3347 281.709 63.3352 279.199 58.65C276.688 53.9648 272.524 49.6796 266.761 45.9086C262.91 43.3945 258.432 41.1662 253.525 39.2807C249.132 37.6237 244.454 36.1953 239.605 35.0526H239.633Z" fill="var(--fill-0, #0C0C0C)"/>
<path id="Vector_2" d="M179.272 237.373C177.703 237.373 176.42 236.088 176.42 234.517V221.375H163.298C161.729 221.375 160.445 220.09 160.445 218.518V170.524C160.445 168.952 161.729 167.667 163.298 167.667H176.42V154.525C176.42 152.954 177.703 151.668 179.272 151.668H211.221C212.79 151.668 214.074 152.954 214.074 154.525V167.667H227.196C228.765 167.667 230.048 168.952 230.048 170.524V218.518C230.048 220.09 228.765 221.375 227.196 221.375H214.074V234.517C214.074 236.088 212.79 237.373 211.221 237.373H179.272ZM208.369 215.661V173.38H182.125V215.661H208.369Z" fill="var(--fill-0, #0C0C0C)"/>
<path id="Vector_3" d="M275.091 270.227C268.016 270.227 261.284 268.856 255.066 266.199C248.876 263.542 243.342 259.771 238.606 255.057C233.871 250.315 230.134 244.773 227.481 238.573C224.8 232.345 223.459 225.603 223.459 218.518C223.459 211.433 224.828 204.691 227.481 198.463C230.134 192.264 233.871 186.722 238.606 181.979C243.313 177.266 248.847 173.495 255.066 170.838C261.284 168.152 268.016 166.81 275.091 166.81C282.165 166.81 288.897 168.181 295.116 170.838C301.306 173.523 306.84 177.266 311.575 181.979C316.311 186.722 320.048 192.264 322.701 198.463C325.382 204.691 326.723 211.433 326.723 218.518C326.723 225.603 325.353 232.431 322.701 238.688C320.048 244.887 316.282 250.429 311.518 255.172C306.755 259.885 301.249 263.628 295.087 266.256C288.897 268.884 282.194 270.227 275.119 270.227H275.091ZM296.942 242.401L287.015 225.975C286.615 225.318 286.501 224.518 286.701 223.775C286.901 223.032 287.385 222.404 288.07 222.004C290.466 220.661 292.406 218.861 293.861 216.661C295.259 214.519 295.972 211.919 295.972 208.777C295.972 204.834 295.116 201.806 293.404 199.749C291.607 197.606 289.268 196.092 286.244 195.207C282.992 194.235 279.398 193.721 275.519 193.721H256.492V242.401H266.818V227.66C266.818 226.089 268.102 224.803 269.671 224.803H275.433C276.46 224.803 277.401 225.375 277.915 226.26L286.958 242.373H296.97L296.942 242.401ZM269.642 219.718C268.073 219.718 266.79 218.433 266.79 216.861V203.291C266.79 201.72 268.073 200.435 269.642 200.435H274.463C278.029 200.435 280.767 201.035 282.85 202.263C284.59 203.291 286.644 205.434 286.644 209.748C286.644 212.719 285.503 215.233 283.306 217.061C281.252 218.804 278.343 219.69 274.634 219.69H269.614L269.642 219.718Z" fill="var(--fill-0, #0C0C0C)"/>
<path id="Vector_4" d="M336.393 258.743C334.824 258.743 333.54 257.457 333.54 255.886V186.579H313.972C312.403 186.579 311.119 185.293 311.119 183.722V153.297C311.119 151.726 312.403 150.44 313.972 150.44H333.54V110.902C333.54 109.33 334.824 108.045 336.393 108.045H373.049C374.618 108.045 375.901 109.33 375.901 110.902V150.44H395.67C397.239 150.44 398.522 151.726 398.522 153.297V183.722C398.522 185.293 397.239 186.579 395.67 186.579H375.901V255.886C375.901 257.457 374.618 258.743 373.049 258.743H336.393Z" fill="var(--fill-0, #0C0C0C)"/>
<path id="Vector_5" d="M432.611 212.376C423.854 212.376 415.866 210.434 408.877 206.577C401.86 202.72 396.269 197.406 392.247 190.75C388.196 184.094 386.171 176.58 386.171 168.381C386.171 160.182 388.225 152.411 392.275 145.841C396.298 139.298 401.889 134.07 408.906 130.271C415.895 126.5 423.825 124.557 432.468 124.557C441.112 124.557 449.498 126.471 456.43 130.271C463.39 134.07 468.953 139.298 472.975 145.841C477.026 152.411 479.08 159.982 479.08 168.381C479.08 176.78 477.054 184.065 473.089 190.721C469.124 197.378 463.533 202.691 456.516 206.548C449.527 210.376 441.483 212.348 432.611 212.348V212.376ZM432.44 155.268C430.072 155.268 428.018 155.811 426.164 156.925C424.281 158.068 422.855 159.582 421.743 161.553C420.659 163.524 420.088 165.867 420.088 168.581C420.088 171.295 420.63 173.438 421.714 175.437C422.798 177.409 424.253 178.923 426.136 180.065C427.99 181.18 430.044 181.722 432.411 181.722C435.007 181.722 437.204 181.18 439.115 180.037C441.026 178.923 442.452 177.409 443.479 175.466C444.535 173.495 445.048 171.123 445.048 168.41C445.048 165.696 444.506 163.353 443.422 161.382C442.338 159.439 440.912 157.954 439.058 156.868C437.232 155.811 434.979 155.268 432.44 155.268Z" fill="var(--fill-0, #0C0C0C)"/>
<path id="Vector_6" d="M501.073 221.375C499.504 221.375 498.221 220.09 498.221 218.518V205.377H485.099C483.53 205.377 482.246 204.091 482.246 202.52V125.386H469.124C467.555 125.386 466.271 124.1 466.271 122.529V106.531C466.271 104.959 467.555 103.674 469.124 103.674H501.073C502.642 103.674 503.926 104.959 503.926 106.531V199.663H533.022C534.591 199.663 535.875 200.949 535.875 202.52V218.518C535.875 220.09 534.591 221.375 533.022 221.375H501.073Z" fill="var(--fill-0, #0C0C0C)"/>
<path id="Vector_7" d="M524.151 247.03C523.323 247.03 522.553 246.687 522.011 246.058C521.469 245.458 521.212 244.63 521.326 243.801L521.498 242.516C521.669 241.173 522.753 240.116 524.122 240.03L526.347 239.859C529.028 239.659 531.025 239.402 532.309 239.059C533.279 238.802 534.078 238.373 534.734 237.745C535.047 237.431 535.646 236.631 536.046 234.631L550.28 167.553C550.708 165.41 550.309 164.781 550.309 164.753C549.909 164.639 548.854 164.353 546.372 164.353C545.089 164.353 543.548 164.439 541.808 164.581C541.722 164.581 541.637 164.581 541.551 164.581C540.724 164.581 539.925 164.21 539.383 163.582C538.784 162.867 538.556 161.925 538.784 161.039L539.098 159.753C539.383 158.554 540.41 157.696 541.637 157.611C541.637 157.611 579.805 154.725 579.862 154.725C580.689 154.725 581.459 155.068 582.001 155.697C582.6 156.382 582.828 157.297 582.657 158.182L566.198 235.774C565.798 237.802 566.055 238.431 566.055 238.431C566.112 238.516 566.283 238.831 567.082 239.059C567.824 239.288 569.393 239.602 572.559 239.83L574.641 240.002C575.412 240.059 576.125 240.43 576.638 241.03C577.123 241.63 577.351 242.402 577.266 243.201L577.095 244.487C576.923 245.915 575.697 247.001 574.27 247.001H524.122L524.151 247.03ZM568.879 152.64C564.115 152.64 560.435 150.926 557.897 147.583C555.415 144.298 554.673 140.213 555.7 135.413C556.699 131.014 558.981 127.385 562.461 124.586C565.941 121.786 569.992 120.358 574.47 120.358C578.949 120.358 582.714 121.957 585.167 125.129C587.621 128.271 588.391 132.128 587.478 136.584C586.622 141.127 584.397 144.984 580.86 148.012C577.323 151.069 573.272 152.611 568.851 152.611L568.879 152.64Z" fill="var(--fill-0, #0C0C0C)"/>
<path id="Vector_8" d="M626.244 263.399C620.367 263.399 614.348 262.228 608.272 259.914C599.544 256.571 591.157 250.943 583.398 243.144C575.639 235.345 570.219 227.203 566.939 218.49C563.601 209.662 562.717 200.892 564.314 192.407C565.912 183.894 570.019 176.266 576.495 169.752C583.056 163.182 590.701 159.039 599.173 157.468C601.854 156.982 604.593 156.725 607.303 156.725C613.15 156.725 619.141 157.868 625.16 160.153C633.86 163.439 642.133 168.981 649.778 176.637C657.565 184.436 663.185 192.807 666.522 201.549C669.888 210.405 670.83 219.204 669.261 227.632C667.692 236.145 663.556 243.773 656.995 250.343C650.434 256.914 642.817 261.057 634.317 262.599C631.664 263.085 628.925 263.342 626.244 263.342V263.399ZM632.519 176.209C632.006 176.209 631.521 176.209 631.008 176.266C625.331 176.723 619.683 178.58 614.263 181.751C608.672 185.036 603.737 188.779 599.658 192.893C595.578 197.006 591.813 201.92 588.533 207.52C585.338 212.948 583.512 218.604 583.056 224.289C582.628 229.603 584.368 234.145 588.39 238.173C592.155 241.944 596.349 243.773 601.198 243.773C601.626 243.773 602.082 243.773 602.51 243.716C608.244 243.344 613.921 241.516 619.341 238.345C624.932 235.059 629.867 231.288 633.946 227.203C638.111 223.032 641.876 218.09 645.128 212.519C648.266 207.12 650.063 201.463 650.462 195.721C650.833 190.321 649.007 185.693 644.9 181.58C641.277 177.951 637.226 176.18 632.577 176.18L632.519 176.209Z" fill="var(--fill-0, #0C0C0C)"/>
</g>
</svg>
