<svg preserveAspectRatio="xMidYMid meet" width="100%" height="100%" overflow="visible" style="display: block;" viewBox="0 0 686.024 286.971" fill="none" xmlns="http://www.w3.org/2000/svg">
<g id="&#230;&#160;&#135;&#233;&#162;&#152;" filter="url(#filter0_f_412_1138)">
<path id="Vector" d="M58.5828 243.975C54.5606 243.975 50.5955 243.689 46.773 243.146C35.106 241.661 26.32 238.09 20.6719 232.547C14.9096 226.891 12 220.577 12 213.807C12 206.436 15.309 199.751 21.8129 193.895C28.2312 188.124 37.3024 185.21 48.7413 185.21C52.2215 185.21 55.9869 185.524 59.9235 186.181C63.86 186.838 68.0533 187.895 72.4178 189.352C76.6682 190.781 77.5525 193.209 77.5525 194.98C77.5525 196.923 76.1832 198.894 73.1024 198.894C71.6761 198.894 70.3925 198.637 69.337 198.123C66.7412 197.151 64.2309 196.466 61.8918 196.066C59.4956 195.666 57.2135 195.437 55.1026 195.437C48.2849 195.437 43.2929 197.266 39.8413 201.008C36.3326 204.836 34.621 208.836 34.621 213.264C34.621 217.692 36.3326 221.234 39.8698 224.777C43.3499 228.262 49.1977 230.033 57.185 230.033C67.7681 230.033 77.6951 227.548 86.6807 222.691C95.8661 217.721 104.681 211.093 112.925 203.008C121.711 194.38 129.84 183.81 137.114 171.611C144.474 159.27 151.862 145.843 159.136 131.701C166.439 117.503 174.54 102.933 183.212 88.4488C191.913 73.879 202.096 59.9662 213.45 47.1676C215.76 44.6822 218.099 42.0825 220.439 39.3685C221.38 38.2829 222.35 37.2258 223.291 36.2545C219.212 35.7688 215.076 35.3689 210.882 35.0832C204.578 34.6547 198.302 34.4261 192.284 34.4261C183.212 34.4261 174.54 34.8261 166.468 35.5974C158.395 36.3688 150.236 37.4829 142.164 38.8828C134.062 40.4255 124.848 42.9109 114.75 46.1963C104.738 49.4816 94.8962 53.824 85.4541 59.1092C76.1547 64.3086 68.1104 70.6793 61.5494 78.0214C55.1597 85.1635 51.166 93.5054 49.6542 102.847C49.483 103.733 49.3689 104.561 49.2833 105.447C49.1977 106.333 49.1692 107.161 49.1692 107.961C49.1692 115.36 51.6224 121.274 56.6145 126.045C61.6635 130.873 67.3973 133.215 74.1294 133.215C79.0643 133.215 83.9423 131.873 88.6205 129.216C93.4128 126.473 97.7773 122.759 101.628 118.188C105.365 113.703 108.189 108.704 110.015 103.333C110.5 99.7333 112.867 98.4478 114.921 98.4478C115.663 98.4478 119.371 98.7335 119.371 104.219C119.172 112.646 116.718 119.988 112.04 126.13C107.448 132.13 101.6 136.758 94.6395 139.872C87.7647 142.929 80.6903 144.5 73.6159 144.5C66.5415 144.5 59.3244 142.929 52.792 139.843C46.174 136.729 40.697 132.016 36.5323 125.845C32.3389 119.645 30.228 111.932 30.228 102.904C30.228 92.477 32.8239 83.1351 37.9585 75.1074C42.9791 67.2226 49.7968 60.2233 58.1834 54.2811C66.4559 48.4246 75.5556 43.4252 85.2259 39.397C94.8677 35.3689 104.624 32.1121 114.237 29.7124C123.821 27.3126 132.636 25.4557 140.452 24.2272C148.439 22.9702 156.854 21.9989 165.441 21.2847C174.055 20.5705 182.927 20.2277 191.77 20.2277C199.415 20.2277 207.174 20.5991 214.819 21.3133C222.007 21.9989 229.168 22.9988 236.099 24.2844C238.866 22.2275 241.747 20.3705 244.686 18.7421C247.966 16.9138 251.674 15.2568 255.697 13.7712C258.435 12.5714 260.574 12 262.229 12C265.31 12 266.679 13.9712 266.679 15.9139C266.679 18.9707 263.684 21.2276 261.088 22.856C259.662 23.5987 258.064 24.7129 256.096 26.3413C255.155 27.1126 254.185 27.9697 253.186 28.8553C262.914 31.6836 271.871 35.626 279.887 40.5683C290.241 46.7677 297.829 53.4812 302.365 60.5662C306.986 67.7368 309.325 75.2217 309.325 82.8209C309.325 91.4485 306.701 100.133 301.481 108.59C296.403 116.846 289.728 124.616 281.57 131.673C273.497 138.672 264.511 144.814 254.812 149.956C245.085 155.099 235.329 158.87 225.801 161.212C216.759 163.526 207.459 165.241 198.16 166.326C188.917 167.383 180.502 167.926 173.2 167.926H169.349C168.521 167.926 167.666 167.897 166.867 167.84C161.133 175.897 155.2 183.81 149.209 191.381C142.82 199.494 135.489 207.493 127.473 215.149C117.546 224.548 106.563 231.805 94.8106 236.69C83.0294 241.575 70.8204 244.061 58.4972 244.061L58.5828 243.975ZM243.659 39.797C235.129 51.9671 227.057 64.7371 219.611 77.7929C211.795 91.5342 203.951 105.533 196.334 119.417C189.517 131.816 182.214 144.1 174.569 156.042C179.732 155.899 185.409 155.384 191.428 154.47C199.558 153.27 207.802 151.413 215.931 148.985C229.31 144.843 241.576 138.843 252.302 131.101C262.999 123.388 271.585 114.703 277.804 105.304C283.909 96.1052 286.989 86.9919 286.989 78.2214C286.989 73.0791 285.734 68.0796 283.224 63.3944C280.714 58.7092 276.549 54.424 270.787 50.6529C266.936 48.1389 262.457 45.9106 257.551 44.0251C253.158 42.3681 248.48 40.9397 243.63 39.797H243.659Z" fill="var(--fill-0, #191919)" fill-opacity="0.5"/>
<path id="Vector_2" d="M183.298 242.118C181.729 242.118 180.445 240.832 180.445 239.261V226.12H167.323C165.754 226.12 164.471 224.834 164.471 223.263V175.268C164.471 173.697 165.754 172.411 167.323 172.411H180.445V159.27C180.445 157.698 181.729 156.413 183.298 156.413H215.247C216.816 156.413 218.099 157.698 218.099 159.27V172.411H231.221C232.79 172.411 234.074 173.697 234.074 175.268V223.263C234.074 224.834 232.79 226.12 231.221 226.12H218.099V239.261C218.099 240.832 216.816 242.118 215.247 242.118H183.298ZM212.394 220.406V178.125H186.15V220.406H212.394Z" fill="var(--fill-0, #191919)" fill-opacity="0.5"/>
<path id="Vector_3" d="M279.116 274.971C272.042 274.971 265.31 273.6 259.091 270.943C252.901 268.286 247.367 264.515 242.632 259.802C237.896 255.059 234.159 249.517 231.507 243.318C228.825 237.09 227.484 230.348 227.484 223.263C227.484 216.178 228.854 209.436 231.507 203.208C234.159 197.008 237.896 191.466 242.632 186.724C247.338 182.01 252.872 178.239 259.091 175.582C265.31 172.897 272.042 171.554 279.116 171.554C286.191 171.554 292.923 172.925 299.141 175.582C305.331 178.268 310.866 182.01 315.601 186.724C320.336 191.466 324.073 197.008 326.726 203.208C329.407 209.436 330.748 216.178 330.748 223.263C330.748 230.348 329.379 237.176 326.726 243.432C324.073 249.631 320.308 255.174 315.544 259.916C310.78 264.63 305.274 268.372 299.113 271C292.923 273.629 286.219 274.971 279.145 274.971H279.116ZM300.967 247.146L291.04 230.719C290.641 230.062 290.527 229.262 290.726 228.519C290.926 227.777 291.411 227.148 292.095 226.748C294.492 225.405 296.431 223.606 297.886 221.406C299.284 219.263 299.997 216.663 299.997 213.521C299.997 209.579 299.141 206.55 297.43 204.493C295.633 202.351 293.294 200.837 290.27 199.951C287.018 198.98 283.424 198.465 279.544 198.465H260.517V247.146H270.844V232.405C270.844 230.833 272.127 229.548 273.696 229.548H279.459C280.485 229.548 281.427 230.119 281.94 231.005L290.983 247.117H300.996L300.967 247.146ZM273.668 224.463C272.099 224.463 270.815 223.177 270.815 221.606V208.036C270.815 206.465 272.099 205.179 273.668 205.179H278.489C282.054 205.179 284.793 205.779 286.875 207.007C288.615 208.036 290.669 210.178 290.669 214.492C290.669 217.463 289.528 219.977 287.332 221.806C285.278 223.548 282.368 224.434 278.66 224.434H273.639L273.668 224.463Z" fill="var(--fill-0, #191919)" fill-opacity="0.5"/>
<path id="Vector_4" d="M340.418 263.487C338.85 263.487 337.566 262.201 337.566 260.63V191.323H317.997C316.428 191.323 315.145 190.038 315.145 188.467V158.041C315.145 156.47 316.428 155.184 317.997 155.184H337.566V115.646C337.566 114.075 338.85 112.789 340.418 112.789H377.074C378.643 112.789 379.927 114.075 379.927 115.646V155.184H399.695C401.264 155.184 402.548 156.47 402.548 158.041V188.467C402.548 190.038 401.264 191.323 399.695 191.323H379.927V260.63C379.927 262.201 378.643 263.487 377.074 263.487H340.418Z" fill="var(--fill-0, #191919)" fill-opacity="0.5"/>
<path id="Vector_5" d="M436.636 217.121C427.879 217.121 419.892 215.178 412.903 211.321C405.885 207.464 400.294 202.151 396.272 195.494C392.222 188.838 390.196 181.324 390.196 173.125C390.196 164.926 392.25 157.156 396.301 150.585C400.323 144.043 405.914 138.815 412.931 135.015C419.92 131.244 427.85 129.302 436.494 129.302C445.137 129.302 453.524 131.216 460.455 135.015C467.416 138.815 472.978 144.043 477.001 150.585C481.051 157.156 483.105 164.726 483.105 173.125C483.105 181.524 481.08 188.809 477.115 195.466C473.149 202.122 467.558 207.436 460.541 211.293C453.552 215.121 445.508 217.092 436.636 217.092V217.121ZM436.465 160.012C434.098 160.012 432.044 160.555 430.19 161.669C428.307 162.812 426.881 164.326 425.768 166.297C424.684 168.269 424.114 170.611 424.114 173.325C424.114 176.039 424.656 178.182 425.74 180.182C426.823 182.153 428.278 183.667 430.161 184.81C432.015 185.924 434.069 186.467 436.437 186.467C439.033 186.467 441.229 185.924 443.14 184.781C445.052 183.667 446.478 182.153 447.505 180.21C448.56 178.239 449.074 175.868 449.074 173.154C449.074 170.44 448.532 168.097 447.448 166.126C446.364 164.183 444.937 162.698 443.083 161.612C441.258 160.555 439.004 160.012 436.465 160.012Z" fill="var(--fill-0, #191919)" fill-opacity="0.5"/>
<path id="Vector_6" d="M505.098 226.12C503.53 226.12 502.246 224.834 502.246 223.263V210.121H489.124C487.555 210.121 486.271 208.836 486.271 207.265V130.13H473.149C471.581 130.13 470.297 128.844 470.297 127.273V111.275C470.297 109.704 471.581 108.418 473.149 108.418H505.098C506.667 108.418 507.951 109.704 507.951 111.275V204.408H537.047C538.616 204.408 539.9 205.693 539.9 207.265V223.263C539.9 224.834 538.616 226.12 537.047 226.12H505.098Z" fill="var(--fill-0, #191919)" fill-opacity="0.5"/>
<path id="Vector_7" d="M528.176 251.774C527.349 251.774 526.578 251.431 526.036 250.803C525.494 250.203 525.238 249.374 525.352 248.546L525.523 247.26C525.694 245.918 526.778 244.86 528.147 244.775L530.372 244.603C533.054 244.403 535.051 244.146 536.334 243.803C537.304 243.546 538.103 243.118 538.759 242.489C539.073 242.175 539.672 241.375 540.071 239.375L554.306 172.297C554.734 170.154 554.334 169.526 554.334 169.497C553.935 169.383 552.879 169.097 550.398 169.097C549.114 169.097 547.574 169.183 545.833 169.326C545.748 169.326 545.662 169.326 545.577 169.326C544.749 169.326 543.951 168.954 543.409 168.326C542.81 167.612 542.582 166.669 542.81 165.783L543.123 164.498C543.409 163.298 544.436 162.441 545.662 162.355C545.662 162.355 583.83 159.47 583.887 159.47C584.714 159.47 585.484 159.813 586.026 160.441C586.625 161.127 586.854 162.041 586.682 162.927L570.223 240.518C569.824 242.546 570.08 243.175 570.08 243.175C570.137 243.261 570.309 243.575 571.107 243.803C571.849 244.032 573.418 244.346 576.584 244.575L578.667 244.746C579.437 244.803 580.15 245.175 580.664 245.775C581.148 246.375 581.377 247.146 581.291 247.946L581.12 249.231C580.949 250.66 579.722 251.745 578.296 251.745H528.147L528.176 251.774ZM572.904 157.384C568.141 157.384 564.461 155.67 561.922 152.328C559.44 149.042 558.699 144.957 559.726 140.158C560.724 135.758 563.006 132.13 566.486 129.33C569.966 126.53 574.017 125.102 578.496 125.102C582.974 125.102 586.74 126.702 589.193 129.873C591.646 133.015 592.416 136.872 591.503 141.329C590.648 145.871 588.423 149.728 584.885 152.756C581.348 155.813 577.297 157.356 572.876 157.356L572.904 157.384Z" fill="var(--fill-0, #191919)" fill-opacity="0.5"/>
<path id="Vector_8" d="M630.269 268.144C624.393 268.144 618.374 266.972 612.298 264.658C603.569 261.316 595.182 255.688 587.423 247.889C579.664 240.09 574.244 231.948 570.964 223.234C567.626 214.407 566.742 205.636 568.34 197.151C569.937 188.638 574.045 181.01 580.52 174.497C587.081 167.926 594.726 163.784 603.198 162.212C605.88 161.727 608.618 161.469 611.328 161.469C617.176 161.469 623.166 162.612 629.185 164.898C637.886 168.183 646.158 173.725 653.803 181.382C661.591 189.181 667.21 197.551 670.548 206.293C673.914 215.149 674.855 223.948 673.286 232.376C671.717 240.889 667.581 248.517 661.02 255.088C654.459 261.659 646.843 265.801 638.342 267.344C635.689 267.829 632.951 268.086 630.269 268.086V268.144ZM636.545 180.953C636.031 180.953 635.546 180.953 635.033 181.01C629.356 181.467 623.708 183.324 618.288 186.495C612.697 189.781 607.762 193.523 603.683 197.637C599.604 201.751 595.838 206.665 592.558 212.264C589.363 217.692 587.537 223.348 587.081 229.034C586.653 234.347 588.393 238.89 592.415 242.918C596.181 246.689 600.374 248.517 605.223 248.517C605.651 248.517 606.108 248.517 606.536 248.46C612.269 248.089 617.946 246.26 623.366 243.089C628.957 239.804 633.892 236.033 637.971 231.948C642.136 227.777 645.901 222.834 649.153 217.263C652.291 211.864 654.088 206.207 654.488 200.465C654.858 195.066 653.033 190.438 648.925 186.324C645.302 182.696 641.252 180.925 636.602 180.925L636.545 180.953Z" fill="var(--fill-0, #191919)" fill-opacity="0.5"/>
</g>
<defs>
<filter id="filter0_f_412_1138" x="-7.97461" y="-7.25562" width="702" height="300" filterUnits="userSpaceOnUse" color-interpolation-filters="sRGB">
<feFlood flood-opacity="0" result="BackgroundImageFix"/>
<feBlend mode="normal" in="SourceGraphic" in2="BackgroundImageFix" result="shape"/>
<feGaussianBlur stdDeviation="6" result="effect1_foregroundBlur_412_1138"/>
</filter>
</defs>
</svg>
