<svg preserveAspectRatio="xMidYMid meet" width="282.38" height="73.97" viewBox="0 0 282.38 73.97" fill="none" xmlns="http://www.w3.org/2000/svg">
<g id="_&#233;&#141;&#165;&#230;&#131;&#167;&#231;&#156;&#176;_1" clip-path="url(#clip0_535_3)">
<path id="Vector" d="M36.98 73.97C31.91 73.97 27.15 73 22.68 71.07C18.21 69.14 14.28 66.47 10.89 63.08C7.5 59.69 4.83 55.75 2.9 51.29C0.97 46.82 0 42.06 0 36.99C0 31.92 0.97 27.16 2.9 22.69C4.83 18.22 7.5 14.29 10.89 10.9C14.29 7.51 18.22 4.84 22.68 2.91C27.15 0.98 31.91 0.01 36.98 0.01C42.05 0.01 46.81 0.98 51.28 2.91C55.75 4.84 59.68 7.51 63.07 10.9C66.47 14.3 69.13 18.23 71.06 22.69C72.99 27.16 73.96 31.92 73.96 36.99C73.96 42.06 72.99 46.9 71.06 51.37C69.13 55.84 66.45 59.77 63.03 63.16C59.61 66.56 55.68 69.21 51.24 71.11C46.8 73.02 42.05 73.97 36.98 73.97ZM17.23 57.2H27.5L30.24 47.88H43.25L45.91 57.2H56.65L42.94 16.06H30.95L17.24 57.2H17.23ZM32.12 40.51L33.3 36.67C33.87 34.58 34.42 32.4 34.95 30.13C35.47 27.86 36.02 25.65 36.6 23.51H36.91C37.07 24.14 37.26 24.89 37.5 25.78C37.73 26.67 37.98 27.61 38.25 28.6C38.51 29.59 38.76 30.6 38.99 31.62C39.22 32.64 39.46 33.58 39.7 34.44C39.93 35.3 40.13 36.05 40.29 36.67L41.39 40.51H32.14H32.12Z" fill="black"/>
<path id="Vector_2" d="M74.16 9.65L88.4 8.57L84.27 27.9C86.02 26.1 87.86 24.71 89.77 23.71C91.68 22.71 93.48 22.21 95.16 22.21C97.07 22.21 98.78 22.85 100.28 24.12C101.78 25.4 102.81 27.28 103.39 29.78C103.97 32.27 103.9 35.24 103.18 38.67C102.5 41.86 101.38 44.69 99.8 47.17C98.22 49.64 96.17 51.61 93.64 53.06C91.11 54.52 88.17 55.24 84.81 55.24C83.61 55.24 82.51 55.11 81.49 54.85C80.47 54.59 79.6 54.1 78.89 53.38L69.73 55.24H69.25L78.35 12.52C78.59 11.28 78.38 10.54 77.72 10.28C77.06 10.02 75.83 9.97 74.04 10.13L74.16 9.65ZM88.88 52.67C90 51.27 90.94 49.41 91.72 47.07C92.5 44.74 93.25 41.93 93.96 38.66C94.4 36.67 94.66 34.96 94.74 33.54C94.82 32.12 94.74 30.94 94.53 29.98C94.31 29.02 93.9 28.24 93.3 27.65C92.74 27.05 91.98 26.61 91.03 26.33C90.07 26.05 89 26.06 87.8 26.36C86.6 26.66 85.39 27.37 84.15 28.48L80.44 45.83C80.08 47.47 80.05 48.97 80.35 50.35C80.65 51.73 81.21 52.8 82.03 53.58C82.85 54.36 83.81 54.75 84.93 54.75C86.45 54.75 87.76 54.05 88.88 52.66V52.67Z" fill="black"/>
<path id="Vector_3" d="M105.81 59.95C103.98 59.95 102.64 59.34 101.78 58.11C100.92 56.88 100.48 55.39 100.48 53.61C100.48 51.45 100.98 49.19 101.99 46.84C102.95 44.63 104.17 42.62 105.66 40.79C107.15 38.97 108.76 37.49 110.48 36.36C112.21 35.23 113.89 34.67 115.52 34.67C117.34 34.67 118.69 35.27 119.55 36.47C120.41 37.67 120.85 39.18 120.85 41.01C120.85 43.22 120.35 45.47 119.34 47.78C118.76 49.08 117.95 50.5 116.89 52.06C115.83 53.62 114.63 55.05 113.29 56.34C113.58 56.87 113.99 57.31 114.51 57.67C115.04 58.03 115.76 58.21 116.67 58.21C117.82 58.21 118.91 57.73 119.95 56.77C120.98 55.81 121.93 54.65 122.79 53.28C123.65 51.91 124.42 50.53 125.09 49.14C125.76 47.75 126.31 46.62 126.75 45.76C126.89 45.47 127.13 45.33 127.47 45.33C127.66 45.33 127.8 45.41 127.9 45.58C128 45.75 127.97 46 127.83 46.34C127.54 47.06 127.06 48.13 126.39 49.54C125.72 50.96 124.9 52.42 123.94 53.93C122.98 55.44 121.88 56.73 120.63 57.78C119.38 58.84 117.99 59.36 116.45 59.36C115.39 59.36 114.48 59.18 113.71 58.82C112.94 58.46 112.32 58.02 111.84 57.49C110.83 58.26 109.82 58.86 108.82 59.29C107.81 59.72 106.8 59.94 105.8 59.94L105.81 59.95ZM106.89 58.37C108.19 58.37 109.58 57.75 111.07 56.5C110.69 55.92 110.4 55.32 110.21 54.7C110.02 54.08 109.92 53.5 109.92 52.97C109.92 52.11 110.12 51.36 110.53 50.74C110.94 50.12 111.57 49.8 112.44 49.8C113.06 49.8 113.58 50.03 113.99 50.48C114.4 50.94 114.6 51.45 114.6 52.03C114.6 52.17 114.59 52.31 114.56 52.43C114.53 52.55 114.5 52.68 114.45 52.83C115.27 51.73 116.03 50.43 116.75 48.94C118.33 45.53 119.13 42.72 119.13 40.52C119.13 39.42 118.91 38.55 118.48 37.93C118.05 37.31 117.4 36.99 116.54 36.99C115.53 36.99 114.44 37.42 113.26 38.29C112.08 39.15 110.96 40.31 109.88 41.75C108.8 43.19 107.85 44.8 107.04 46.57C106.27 48.2 105.66 49.77 105.2 51.29C104.74 52.8 104.52 54.11 104.52 55.21C104.52 56.17 104.71 56.94 105.1 57.51C105.48 58.09 106.08 58.37 106.9 58.37H106.89Z" fill="black"/>
<path id="Vector_4" d="M128.77 59.95C128.24 59.95 127.61 59.83 126.86 59.59C126.12 59.35 125.47 58.91 124.92 58.26C124.37 57.61 124.09 56.64 124.09 55.34C124.09 54.04 124.39 52.88 124.99 51.7C125.59 50.52 126.15 49.38 126.68 48.28C126.54 48.28 126.38 48.23 126.21 48.14C126.04 48.04 125.96 47.9 125.96 47.71C125.96 47.52 126.01 47.33 126.1 47.13C126.29 46.75 126.51 46.34 126.75 45.91C126.99 45.48 127.21 45.02 127.4 44.54C128.12 43.05 128.84 41.62 129.56 40.26C130.28 38.89 130.9 37.68 131.43 36.62C131.96 35.56 132.87 35.04 134.17 35.04H138.63C137.81 35.66 137.08 36.35 136.43 37.09C135.78 37.84 134.98 39.19 134.02 41.16C133.35 42.5 132.76 43.69 132.26 44.72C131.76 45.75 131.25 46.8 130.75 47.85C130.25 48.91 129.83 49.79 129.49 50.51C128.87 51.85 128.46 52.92 128.27 53.71C128.08 54.5 127.98 55.23 127.98 55.91C127.98 57.49 128.51 58.29 129.56 58.29C130.71 58.29 132.1 57.35 133.74 55.48C135.08 53.9 136.4 52 137.7 49.79C139 47.58 140.23 45.3 141.41 42.95C142.59 40.6 143.63 38.49 144.54 36.61C145.07 35.56 146 35.03 147.35 35.03H151.31C150.59 35.61 149.99 36.15 149.51 36.65C149.03 37.15 148.56 37.83 148.11 38.67C147.65 39.51 147.04 40.7 146.27 42.23C145.65 43.53 144.98 44.91 144.29 46.37C143.59 47.83 142.98 49.21 142.45 50.51C141.92 51.81 141.59 52.86 141.44 53.68C141.39 54.16 141.34 54.52 141.3 54.76C141.25 55 141.23 55.26 141.23 55.55C141.23 56.46 141.39 57.11 141.7 57.49C142.01 57.87 142.38 58.07 142.82 58.07C143.97 58.07 145.14 57.42 146.31 56.13C147.49 54.83 148.61 53.25 149.69 51.38C150.77 49.51 151.69 47.73 152.46 46.05C152.75 45.52 153.01 45.26 153.25 45.26C153.54 45.26 153.68 45.43 153.68 45.76C153.68 46 153.58 46.29 153.39 46.62C152.86 47.77 152.21 49.09 151.45 50.58C150.68 52.07 149.82 53.53 148.86 54.97C147.9 56.41 146.84 57.6 145.69 58.53C144.54 59.47 143.29 59.93 141.95 59.93C140.75 59.93 139.77 59.49 139 58.6C138.23 57.71 137.85 56.45 137.85 54.82C137.85 53.52 138.09 52.13 138.57 50.64C137.75 52.08 136.82 53.52 135.76 54.96C134.7 56.4 133.57 57.59 132.38 58.52C131.18 59.46 129.98 59.92 128.78 59.92L128.77 59.95Z" fill="black"/>
<path id="Vector_5" d="M168.45 26V31.79H156.88V49.15H151.09V31.79H145.3V26H151.09V14.43H156.88V26H168.45ZM168.45 54.94H156.88V49.15H168.45V54.94Z" fill="black"/>
<path id="Vector_6" d="M200.55 53.7C201.39 53.46 202.04 53.08 202.49 52.55C202.95 52.02 203.29 51.21 203.53 50.1L209.72 20.65C210.06 19.16 209.83 18.26 209.04 17.95C208.25 17.64 206.77 17.58 204.61 17.77L204.75 17.19L221.81 15.89L220.37 22.73C222.77 20.71 225.21 19.07 227.68 17.8C230.15 16.53 232.68 15.89 235.28 15.89C237.3 15.89 239.03 16.42 240.5 17.47C241.96 18.53 242.72 20.47 242.77 23.3C245.12 21.14 247.63 19.36 250.29 17.97C252.95 16.58 255.61 15.88 258.25 15.88C259.83 15.88 261.26 16.19 262.53 16.82C263.8 17.44 264.74 18.66 265.34 20.46C265.94 22.26 265.9 24.79 265.23 28.06L260.55 50.09C260.31 51.19 260.3 52.01 260.51 52.54C260.73 53.07 261.19 53.45 261.91 53.69C262.63 53.93 263.78 54.12 265.37 54.27L265.3 54.85H242.69L242.76 54.27C244.39 54.13 245.63 53.94 246.47 53.69C247.31 53.45 247.96 53.07 248.41 52.54C248.86 52.01 249.21 51.2 249.45 50.09L253.63 30.22C254.01 28.35 254.28 26.85 254.42 25.72C254.56 24.59 254.54 23.6 254.35 22.73C254.16 21.87 253.68 21.22 252.91 20.79C251.76 20.12 250.17 20.06 248.16 20.61C246.14 21.16 244.34 22.26 242.76 23.89C242.66 25.28 242.5 26.67 242.26 28.07L237.58 50.1C237.34 51.25 237.27 52.09 237.36 52.62C237.46 53.15 237.82 53.52 238.44 53.74C239.06 53.96 240.14 54.14 241.68 54.28L241.61 54.86H220.44L220.51 54.28C222.09 54.14 223.25 53.96 223.97 53.74C224.69 53.52 225.23 53.15 225.59 52.62C225.95 52.09 226.25 51.25 226.49 50.1L230.67 30.23C231.05 28.36 231.32 26.86 231.46 25.73C231.6 24.6 231.58 23.61 231.39 22.74C231.2 21.88 230.72 21.23 229.95 20.8C228.8 20.13 227.29 20.02 225.41 20.48C223.54 20.94 221.81 21.93 220.23 23.47L214.61 50.11C214.37 51.21 214.36 52.03 214.57 52.56C214.78 53.09 215.25 53.47 215.97 53.71C216.69 53.95 217.84 54.14 219.43 54.29L219.36 54.87H196.75L196.82 54.29C198.45 54.15 199.69 53.96 200.53 53.71L200.55 53.7Z" fill="black"/>
<path id="Vector_7" d="M259.34 31.81H265.1V37.57H276.62V31.81H282.38V43.33H265.1V49.09H259.34V31.81ZM276.62 31.81H265.1V26.05H276.62V31.81ZM265.1 49.09H276.62V54.85H265.1V49.09Z" fill="black"/>
</g>
<defs>
<clipPath id="clip0_535_3">
<rect width="282.38" height="73.97" fill="white"/>
</clipPath>
</defs>
</svg>
